<svg xmlns="http://www.w3.org/2000/svg" xmlns:svg="http://www.w3.org/2000/svg" xmlns:xlink="http://www.w3.org/1999/xlink" version="1.0" height="730pt" width="1070.0000000000005pt" viewBox="275 117 1078.0000000000005 736" ><defs><style type="text/css">
            @font-face {
                font-family: 'lt_regular';
                src: url('https://app.creately.com/diagram/assets/fonts/lato/lt-regular-webfont.woff2') format('woff2'),
                    url('https://app.creately.com/diagram/assets/fonts/lato/lt-regular-webfont.woff') format('woff');
                font-weight: normal;
                font-style: normal;
            }
            @font-face {
                font-family: 'noto_regular';
                src: url('https://app.creately.com/diagram/assets/fonts/noto/noto-regular.woff') format('woff'),
                     url('https://app.creately.com/diagram/assets/fonts/noto/noto-regular.woff2') format('woff2');
                font-weight: normal;
                font-style: normal;
            }
        p {
            margin: 0;
        }
        </style></defs><defs><style>
            span{ display: inline-block; }
        </style></defs><g id="oscQxX3YI1g"><g transform="translate(300 120)"><rect x="0" y="0" width="179.99999999999997" height="187" rx="2" ry="2" fill="rgb(255,255,255)" stroke="#659a41" stroke-width="2" stroke-linecap="round" stroke-linejoin="round"/><path d="M 0,30 L 179.99999999999997,30 M 0,120 L 179.99999999999997,120" fill="rgb(255,255,255)" stroke="#659a41" stroke-width="2" stroke-linecap="round" stroke-linejoin="round"/></g><g transform="translate(369, 125) rotate(0, 21, 0)" width="42" height="20"><text text-decoration="none" x="0" fill="rgb(101, 101, 101)" font-weight="bold" font-size="11pt" font-family="lt_regular"  y="16">Visitor</text><text text-decoration="none" x="43" fill="#4b4b4b" font-size="10pt" font-family="noto_regular"  y="16"></text></g><g transform="translate(305, 155) rotate(0, 0, 0)" width="57" height="80"><text text-decoration="none" x="0" fill="rgb(101, 101, 101)" font-size="11pt" font-family="lt_regular"  y="16">-Name</text><text text-decoration="none" x="44" fill="rgb(101, 101, 101)" font-size="11pt" font-family="lt_regular"  y="16"></text><text text-decoration="none" x="0" fill="rgb(101, 101, 101)" font-size="11pt" font-family="lt_regular"  y="36">-Address</text><text text-decoration="none" x="57" fill="rgb(101, 101, 101)" font-size="11pt" font-family="lt_regular"  y="36"></text><text text-decoration="none" x="0" fill="rgb(101, 101, 101)" font-size="11pt" font-family="lt_regular"  y="56">-Phone</text><text text-decoration="none" x="48" fill="rgb(101, 101, 101)" font-size="11pt" font-family="lt_regular"  y="56"></text><text text-decoration="none" x="0" fill="rgb(101, 101, 101)" font-size="11pt" font-family="lt_regular"  y="76">-Email</text><text text-decoration="none" x="42" fill="#4b4b4b" font-size="10pt" font-family="noto_regular"  y="76"></text></g><g transform="translate(305, 245) rotate(0, 0, 0)" width="86" height="20"><text text-decoration="none" x="0" fill="rgb(101, 101, 101)" font-size="11pt" font-family="lt_regular"  y="16">+RequestInfo</text><text text-decoration="none" x="87" fill="#4b4b4b" font-size="10pt" font-family="noto_regular"  y="16"></text></g></g><g id="RBT7vC3yHRn"><g transform="translate(700 120)"><rect x="0" y="0" width="179.99999999999997" height="190" rx="2" ry="2" fill="rgb(255,255,255)" stroke="#659a41" stroke-width="2" stroke-linecap="round" stroke-linejoin="round"/><path d="M 0,30 L 179.99999999999997,30 M 0,138 L 179.99999999999997,138" fill="rgb(255,255,255)" stroke="#659a41" stroke-width="2" stroke-linecap="round" stroke-linejoin="round"/></g><g transform="translate(740, 125) rotate(0, 50, 0)" width="100" height="20"><text text-decoration="none" x="16.5" fill="rgb(101, 101, 101)" font-weight="bold" font-size="11pt" font-family="lt_regular"  y="16">Admission&#160;</text><text text-decoration="none" x="35" fill="rgb(101, 101, 101)" font-weight="bold" font-size="11pt" font-family="lt_regular"  y="36">Staff</text><text text-decoration="none" x="65" fill="#4b4b4b" font-size="10pt" font-family="noto_regular"  y="36"></text></g><g transform="translate(705, 155) rotate(0, 0, 0)" width="50" height="98"><text text-decoration="none" x="0" fill="rgb(101, 101, 101)" font-size="11pt" font-family="lt_regular"  y="16">+Name</text><text text-decoration="none" x="47" fill="rgb(101, 101, 101)" font-size="11pt" font-family="lt_regular"  y="16"></text><text text-decoration="none" x="0" fill="rgb(101, 101, 101)" font-size="11pt" font-family="lt_regular"  y="36">+ID</text><text text-decoration="none" x="24" fill="rgb(101, 101, 101)" font-size="11pt" font-family="lt_regular"  y="36"></text><text text-decoration="none" x="0" fill="rgb(101, 101, 101)" font-size="11pt" font-family="lt_regular"  y="56">+Phone</text><text text-decoration="none" x="0" fill="rgb(101, 101, 101)" font-size="11pt" font-family="lt_regular"  y="76"></text><text text-decoration="none" x="0" fill="rgb(101, 101, 101)" font-size="11pt" font-family="lt_regular"  y="96">+Email</text><text text-decoration="none" x="45" fill="rgb(101, 101, 101)" font-size="11pt" font-family="lt_regular"  y="96"></text><text text-decoration="none" x="25" fill="#4b4b4b" font-size="10pt" font-family="noto_regular"  y="115"></text></g><g transform="translate(705, 263) rotate(0, 0, 0)" width="83" height="20"><text text-decoration="none" x="0" fill="rgb(101, 101, 101)" font-size="11pt" font-family="lt_regular"  y="16">+ProvideInfo</text><text text-decoration="none" x="86" fill="#4b4b4b" font-size="10pt" font-family="noto_regular"  y="16"></text></g></g><g id="yefnBAsbx3i"><g transform="translate(1050 120)"><rect x="0" y="0" width="180" height="187" rx="2" ry="2" fill="rgb(255,255,255)" stroke="#659a41" stroke-width="2" stroke-linecap="round" stroke-linejoin="round"/><path d="M 0,30 L 180,30 M 0,120 L 180,120" fill="rgb(255,255,255)" stroke="#659a41" stroke-width="2" stroke-linecap="round" stroke-linejoin="round"/></g><g transform="translate(1115.5, 125) rotate(0, 24.5, 0)" width="49" height="20"><text text-decoration="none" x="0" fill="rgb(101, 101, 101)" font-weight="bold" font-size="11pt" font-family="lt_regular"  y="16">Advisor</text><text text-decoration="none" x="50" fill="#4b4b4b" font-size="10pt" font-family="noto_regular"  y="16"></text></g><g transform="translate(1055, 155) rotate(0, 0, 0)" width="50" height="80"><text text-decoration="none" x="0" fill="rgb(101, 101, 101)" font-size="11pt" font-family="lt_regular"  y="16">+Name</text><text text-decoration="none" x="47" fill="rgb(101, 101, 101)" font-size="11pt" font-family="lt_regular"  y="16"></text><text text-decoration="none" x="0" fill="rgb(101, 101, 101)" font-size="11pt" font-family="lt_regular"  y="36">+ID</text><text text-decoration="none" x="24" fill="rgb(101, 101, 101)" font-size="11pt" font-family="lt_regular"  y="36"></text><text text-decoration="none" x="0" fill="rgb(101, 101, 101)" font-size="11pt" font-family="lt_regular"  y="56">+Phone</text><text text-decoration="none" x="0" fill="rgb(101, 101, 101)" font-size="11pt" font-family="lt_regular"  y="76"></text><text text-decoration="none" x="0" fill="rgb(101, 101, 101)" font-size="11pt" font-family="lt_regular"  y="96">+Email</text><text text-decoration="none" x="45" fill="#4b4b4b" font-size="10pt" font-family="noto_regular"  y="96"></text></g><g transform="translate(1055, 245) rotate(0, 0, 0)" width="83" height="20"><text text-decoration="none" x="0" fill="rgb(101, 101, 101)" font-size="11pt" font-family="lt_regular"  y="16">+ProvideInfo</text><text text-decoration="none" x="86" fill="#4b4b4b" font-size="10pt" font-family="noto_regular"  y="16"></text></g></g><g id="jqhycdaawKa"><g transform="translate(280 389.99999999999994)"><rect x="0" y="0" width="179.99999999999997" height="208" rx="2" ry="2" fill="rgb(255,255,255)" stroke="#659a41" stroke-width="2" stroke-linecap="round" stroke-linejoin="round"/><path d="M 0,30 L 179.99999999999997,30 M 0,140 L 179.99999999999997,140" fill="rgb(255,255,255)" stroke="#659a41" stroke-width="2" stroke-linecap="round" stroke-linejoin="round"/></g><g transform="translate(339.5, 394.99999999999994) rotate(0, 30.5, 0)" width="61" height="20"><text text-decoration="none" x="0" fill="rgb(101, 101, 101)" font-weight="bold" font-size="11pt" font-family="lt_regular"  y="16">Applicant</text><text text-decoration="none" x="61" fill="#4b4b4b" font-size="10pt" font-family="noto_regular"  y="16"></text></g><g transform="translate(285, 424.99999999999994) rotate(0, 0, 0)" width="81" height="100"><text text-decoration="none" x="0" fill="rgb(101, 101, 101)" font-size="11pt" font-family="lt_regular"  y="16">-Name</text><text text-decoration="none" x="44" fill="rgb(101, 101, 101)" font-size="11pt" font-family="lt_regular"  y="16"></text><text text-decoration="none" x="0" fill="rgb(101, 101, 101)" font-size="11pt" font-family="lt_regular"  y="36">-ApplicantID</text><text text-decoration="none" x="0" fill="rgb(101, 101, 101)" font-size="11pt" font-family="lt_regular"  y="56"></text><text text-decoration="none" x="0" fill="rgb(101, 101, 101)" font-size="11pt" font-family="lt_regular"  y="76">-Address</text><text text-decoration="none" x="57" fill="rgb(101, 101, 101)" font-size="11pt" font-family="lt_regular"  y="76"></text><text text-decoration="none" x="0" fill="rgb(101, 101, 101)" font-size="11pt" font-family="lt_regular"  y="96">-Phone</text><text text-decoration="none" x="48" fill="rgb(101, 101, 101)" font-size="11pt" font-family="lt_regular"  y="96"></text><text text-decoration="none" x="0" fill="rgb(101, 101, 101)" font-size="11pt" font-family="lt_regular"  y="116">-Email</text><text text-decoration="none" x="42" fill="#4b4b4b" font-size="10pt" font-family="noto_regular"  y="116"></text></g><g transform="translate(285, 535) rotate(0, 0, 0)" width="143" height="58"><text text-decoration="none" x="0" fill="rgb(101, 101, 101)" font-size="11pt" font-family="lt_regular"  y="16">+CompleteApplication</text><text text-decoration="none" x="0" fill="rgb(101, 101, 101)" font-size="11pt" font-family="lt_regular"  y="36"></text><text text-decoration="none" x="0" fill="rgb(101, 101, 101)" font-size="11pt" font-family="lt_regular"  y="56">+PayFee</text><text text-decoration="none" x="57" fill="rgb(101, 101, 101)" font-size="10pt" font-family="lt_regular"  y="56"></text><text text-decoration="none" x="71.5" fill="#4b4b4b" font-size="10pt" font-family="noto_regular"  y="75"></text></g></g><g id="vvxagjEOZs7"><g transform="translate(640 400)"><rect x="0" y="0" width="180" height="190" rx="2" ry="2" fill="rgb(255,255,255)" stroke="#659a41" stroke-width="2" stroke-linecap="round" stroke-linejoin="round"/><path d="M 0,30 L 180,30 M 0,120 L 180,120" fill="rgb(255,255,255)" stroke="#659a41" stroke-width="2" stroke-linecap="round" stroke-linejoin="round"/></g><g transform="translate(697.5, 405) rotate(0, 32.5, 0)" width="65" height="20"><text text-decoration="none" x="0" fill="rgb(101, 101, 101)" font-weight="bold" font-size="11pt" font-family="lt_regular"  y="16">VisitorFile</text><text text-decoration="none" x="67" fill="#4b4b4b" font-size="10pt" font-family="noto_regular"  y="16"></text></g><g transform="translate(645, 435) rotate(0, 0, 0)" width="57" height="80"><text text-decoration="none" x="0" fill="rgb(101, 101, 101)" font-size="11pt" font-family="lt_regular"  y="16">-Name</text><text text-decoration="none" x="44" fill="rgb(101, 101, 101)" font-size="11pt" font-family="lt_regular"  y="16"></text><text text-decoration="none" x="0" fill="rgb(101, 101, 101)" font-size="11pt" font-family="lt_regular"  y="36">-Address</text><text text-decoration="none" x="57" fill="rgb(101, 101, 101)" font-size="11pt" font-family="lt_regular"  y="36"></text><text text-decoration="none" x="0" fill="rgb(101, 101, 101)" font-size="11pt" font-family="lt_regular"  y="56">-Phone</text><text text-decoration="none" x="48" fill="rgb(101, 101, 101)" font-size="11pt" font-family="lt_regular"  y="56"></text><text text-decoration="none" x="0" fill="rgb(101, 101, 101)" font-size="11pt" font-family="lt_regular"  y="76">-Email</text><text text-decoration="none" x="42" fill="#4b4b4b" font-size="10pt" font-family="noto_regular"  y="76"></text></g><g transform="translate(645, 525) rotate(0, 0, 0)" width="51" height="60"><text text-decoration="none" x="0" fill="rgb(101, 101, 101)" font-size="11pt" font-family="lt_regular"  y="16">-Add</text><text text-decoration="none" x="32" fill="rgb(101, 101, 101)" font-size="11pt" font-family="lt_regular"  y="16"></text><text text-decoration="none" x="0" fill="rgb(101, 101, 101)" font-size="11pt" font-family="lt_regular"  y="36">-Modify</text><text text-decoration="none" x="0" fill="rgb(101, 101, 101)" font-size="11pt" font-family="lt_regular"  y="56"></text><text text-decoration="none" x="0" fill="rgb(101, 101, 101)" font-size="11pt" font-family="lt_regular"  y="76">-Delete</text><text text-decoration="none" x="50" fill="#4b4b4b" font-size="10pt" font-family="noto_regular"  y="76"></text></g></g><g id="Sp4rn5QiLj8"><g transform="translate(899.9999999999999 449.9999999999999)"><rect x="0" y="0" width="179.99999999999997" height="368" rx="2" ry="2" fill="rgb(255,255,255)" stroke="#659a41" stroke-width="2" stroke-linecap="round" stroke-linejoin="round"/><path d="M 0,30 L 179.99999999999997,30 M 0,298 L 179.99999999999997,298" fill="rgb(255,255,255)" stroke="#659a41" stroke-width="2" stroke-linecap="round" stroke-linejoin="round"/></g><g transform="translate(947.9999999999998, 454.9999999999999) rotate(0, 42, 0)" width="84" height="20"><text text-decoration="none" x="0" fill="rgb(101, 101, 101)" font-weight="bold" font-size="11pt" font-family="lt_regular"  y="16">ApplicantFile</text><text text-decoration="none" x="85" fill="#4b4b4b" font-size="10pt" font-family="noto_regular"  y="16"></text></g><g transform="translate(904.9999999999999, 484.9999999999999) rotate(0, 0, 0)" width="112" height="258"><text text-decoration="none" x="0" fill="rgb(101, 101, 101)" font-size="11pt" font-family="lt_regular"  y="16">-Name</text><text text-decoration="none" x="44" fill="rgb(101, 101, 101)" font-size="11pt" font-family="lt_regular"  y="16"></text><text text-decoration="none" x="0" fill="rgb(101, 101, 101)" font-size="11pt" font-family="lt_regular"  y="36">-ApplicantID</text><text text-decoration="none" x="82" fill="rgb(101, 101, 101)" font-size="11pt" font-family="lt_regular"  y="36"></text><text text-decoration="none" x="0" fill="rgb(101, 101, 101)" font-size="11pt" font-family="lt_regular"  y="56">-Address</text><text text-decoration="none" x="57" fill="rgb(101, 101, 101)" font-size="11pt" font-family="lt_regular"  y="56"></text><text text-decoration="none" x="0" fill="rgb(101, 101, 101)" font-size="11pt" font-family="lt_regular"  y="76">-Phone</text><text text-decoration="none" x="48" fill="rgb(101, 101, 101)" font-size="11pt" font-family="lt_regular"  y="76"></text><text text-decoration="none" x="0" fill="rgb(101, 101, 101)" font-size="11pt" font-family="lt_regular"  y="96">-Email</text><text text-decoration="none" x="42" fill="rgb(101, 101, 101)" font-size="11pt" font-family="lt_regular"  y="96"></text><text text-decoration="none" x="0" fill="rgb(101, 101, 101)" font-size="11pt" font-family="lt_regular"  y="116">-Education</text><text text-decoration="none" x="71" fill="rgb(101, 101, 101)" font-size="11pt" font-family="lt_regular"  y="116"></text><text text-decoration="none" x="0" fill="rgb(101, 101, 101)" font-size="11pt" font-family="lt_regular"  y="136">-WorkExperience</text><text text-decoration="none" x="0" fill="rgb(101, 101, 101)" font-size="11pt" font-family="lt_regular"  y="156"></text><text text-decoration="none" x="0" fill="rgb(101, 101, 101)" font-size="11pt" font-family="lt_regular"  y="176">-GMATscore</text><text text-decoration="none" x="85" fill="rgb(101, 101, 101)" font-size="11pt" font-family="lt_regular"  y="176"></text><text text-decoration="none" x="0" fill="rgb(101, 101, 101)" font-size="11pt" font-family="lt_regular"  y="196">-GREscore</text><text text-decoration="none" x="70" fill="rgb(101, 101, 101)" font-size="11pt" font-family="lt_regular"  y="196"></text><text text-decoration="none" x="0" fill="rgb(101, 101, 101)" font-size="11pt" font-family="lt_regular"  y="216">-Transcripts</text><text text-decoration="none" x="76" fill="rgb(101, 101, 101)" font-size="11pt" font-family="lt_regular"  y="216"></text><text text-decoration="none" x="0" fill="rgb(101, 101, 101)" font-size="11pt" font-family="lt_regular"  y="236">-References</text><text text-decoration="none" x="78" fill="rgb(101, 101, 101)" font-size="11pt" font-family="lt_regular"  y="236"></text><text text-decoration="none" x="0" fill="rgb(101, 101, 101)" font-size="11pt" font-family="lt_regular"  y="256">-Essays</text><text text-decoration="none" x="48" fill="rgb(101, 101, 101)" font-size="11pt" font-family="lt_regular"  y="256"></text><text text-decoration="none" x="56" fill="#4b4b4b" font-size="10pt" font-family="noto_regular"  y="275"></text></g><g transform="translate(904.9999999999999, 752.9999999999999) rotate(0, 0, 0)" width="54" height="60"><text text-decoration="none" x="0" fill="rgb(101, 101, 101)" font-size="11pt" font-family="lt_regular"  y="16">-Add</text><text text-decoration="none" x="32" fill="rgb(101, 101, 101)" font-size="11pt" font-family="lt_regular"  y="16"></text><text text-decoration="none" x="0" fill="rgb(101, 101, 101)" font-size="11pt" font-family="lt_regular"  y="36">-Modify</text><text text-decoration="none" x="54" fill="rgb(101, 101, 101)" font-size="11pt" font-family="lt_regular"  y="36"></text><text text-decoration="none" x="0" fill="rgb(101, 101, 101)" font-size="11pt" font-family="lt_regular"  y="56">-Archive</text><text text-decoration="none" x="56" fill="#4b4b4b" font-size="10pt" font-family="noto_regular"  y="56"></text></g></g><g id="FlYHwsQqFa9"><g transform="translate(1170.0000000000005 400)"><rect x="0" y="0" width="179.99999999999997" height="208" rx="2" ry="2" fill="rgb(255,255,255)" stroke="#659a41" stroke-width="2" stroke-linecap="round" stroke-linejoin="round"/><path d="M 0,30 L 179.99999999999997,30 M 0,140 L 179.99999999999997,140" fill="rgb(255,255,255)" stroke="#659a41" stroke-width="2" stroke-linecap="round" stroke-linejoin="round"/></g><g transform="translate(1234.5000000000005, 405) rotate(0, 25.5, 0)" width="51" height="20"><text text-decoration="none" x="0.5" fill="rgb(101, 101, 101)" font-weight="bold" font-size="11pt" font-family="lt_regular"  y="16">Student</text><text text-decoration="none" x="50.5" fill="#4b4b4b" font-size="10pt" font-family="noto_regular"  y="16"></text></g><g transform="translate(1175.0000000000005, 435) rotate(0, 0, 0)" width="71" height="100"><text text-decoration="none" x="0" fill="rgb(101, 101, 101)" font-size="11pt" font-family="lt_regular"  y="16">-Name</text><text text-decoration="none" x="44" fill="rgb(101, 101, 101)" font-size="11pt" font-family="lt_regular"  y="16"></text><text text-decoration="none" x="0" fill="rgb(101, 101, 101)" font-size="11pt" font-family="lt_regular"  y="36">-StudentID</text><text text-decoration="none" x="71" fill="rgb(101, 101, 101)" font-size="11pt" font-family="lt_regular"  y="36"></text><text text-decoration="none" x="0" fill="rgb(101, 101, 101)" font-size="11pt" font-family="lt_regular"  y="56">-Address</text><text text-decoration="none" x="57" fill="rgb(101, 101, 101)" font-size="11pt" font-family="lt_regular"  y="56"></text><text text-decoration="none" x="0" fill="rgb(101, 101, 101)" font-size="11pt" font-family="lt_regular"  y="76">-Phone</text><text text-decoration="none" x="48" fill="rgb(101, 101, 101)" font-size="11pt" font-family="lt_regular"  y="76"></text><text text-decoration="none" x="0" fill="rgb(101, 101, 101)" font-size="11pt" font-family="lt_regular"  y="96">-Email</text><text text-decoration="none" x="42" fill="#4b4b4b" font-size="10pt" font-family="noto_regular"  y="96"></text></g><g transform="translate(1175.0000000000005, 545) rotate(0, 0, 0)" width="108" height="58"><text text-decoration="none" x="0" fill="rgb(101, 101, 101)" font-size="11pt" font-family="lt_regular"  y="16">+RegisterClasses</text><text text-decoration="none" x="0" fill="rgb(101, 101, 101)" font-size="11pt" font-family="lt_regular"  y="36"></text><text text-decoration="none" x="0" fill="rgb(101, 101, 101)" font-size="11pt" font-family="lt_regular"  y="56">+RetriveInfo</text><text text-decoration="none" x="82" fill="rgb(101, 101, 101)" font-size="10pt" font-family="lt_regular"  y="56"></text><text text-decoration="none" x="54" fill="#4b4b4b" font-size="10pt" font-family="noto_regular"  y="75"></text></g></g><g id="ss4ZsGcWUvL"><g transform="translate(470 640)"><rect x="0" y="0" width="180" height="210" rx="2" ry="2" fill="rgb(255,255,255)" stroke="#659a41" stroke-width="2" stroke-linecap="round" stroke-linejoin="round"/><path d="M 0,30 L 180,30 M 0,140 L 180,140" fill="rgb(255,255,255)" stroke="#659a41" stroke-width="2" stroke-linecap="round" stroke-linejoin="round"/></g><g transform="translate(501.5, 645) rotate(0, 58.5, 0)" width="117" height="20"><text text-decoration="none" x="0" fill="rgb(101, 101, 101)" font-weight="bold" font-size="11pt" font-family="lt_regular"  y="16">FacultyCommittee</text><text text-decoration="none" x="120" fill="#4b4b4b" font-size="10pt" font-family="noto_regular"  y="16"></text></g><g transform="translate(475, 675) rotate(0, 0, 0)" width="57" height="100"><text text-decoration="none" x="0" fill="rgb(101, 101, 101)" font-size="11pt" font-family="lt_regular"  y="16">-Name</text><text text-decoration="none" x="44" fill="rgb(101, 101, 101)" font-size="11pt" font-family="lt_regular"  y="16"></text><text text-decoration="none" x="0" fill="rgb(101, 101, 101)" font-size="11pt" font-family="lt_regular"  y="36">-ID</text><text text-decoration="none" x="21" fill="rgb(101, 101, 101)" font-size="11pt" font-family="lt_regular"  y="36"></text><text text-decoration="none" x="0" fill="rgb(101, 101, 101)" font-size="11pt" font-family="lt_regular"  y="56">-Address</text><text text-decoration="none" x="57" fill="rgb(101, 101, 101)" font-size="11pt" font-family="lt_regular"  y="56"></text><text text-decoration="none" x="0" fill="rgb(101, 101, 101)" font-size="11pt" font-family="lt_regular"  y="76">-Phone</text><text text-decoration="none" x="48" fill="rgb(101, 101, 101)" font-size="11pt" font-family="lt_regular"  y="76"></text><text text-decoration="none" x="0" fill="rgb(101, 101, 101)" font-size="11pt" font-family="lt_regular"  y="96">-Email</text><text text-decoration="none" x="42" fill="#4b4b4b" font-size="10pt" font-family="noto_regular"  y="96"></text></g><g transform="translate(475, 785) rotate(0, 0, 0)" width="129" height="60"><text text-decoration="none" x="0" fill="rgb(101, 101, 101)" font-size="11pt" font-family="lt_regular"  y="16">+InterviewApplicant</text><text text-decoration="none" x="0" fill="rgb(101, 101, 101)" font-size="11pt" font-family="lt_regular"  y="36"></text><text text-decoration="none" x="0" fill="rgb(101, 101, 101)" font-size="11pt" font-family="lt_regular"  y="56">+AcceptApplicant</text><text text-decoration="none" x="115" fill="rgb(101, 101, 101)" font-size="11pt" font-family="lt_regular"  y="56"></text><text text-decoration="none" x="0" fill="rgb(101, 101, 101)" font-size="11pt" font-family="lt_regular"  y="76">+RejectApplicant</text><text text-decoration="none" x="111" fill="#4b4b4b" font-size="10pt" font-family="noto_regular"  y="76"></text></g></g><g id="5rBUv7HJoVA"><mask id="68898" x="466" y="153" width="248" height="29" maskUnits="userSpaceOnUse"><rect x="466" y="153" width="248" height="29" fill="white" /><rect x="657.000309912553" y="155.36363777232978" width="26" height="25" fill="black" /><rect x="500.49992252096126" y="154.4318183579069" width="19" height="25" fill="black" /></mask><g mask="url(#68898)"><path d="M 700,168 L 599.9998966958157,167.54545407589006 Q 599.4999018610249,167.54318137209555 590,167 Q 580.2500251806875,166.77215903368025 580.0000258263462,166.77272721403102 L 480,167" fill="none" stroke="#9A9A9A" stroke-width="2" stroke-linecap="round" stroke-linejoin="round"/><path d="M 487,172.75 L 480,167 L 487,161.25 L 494,167 L 487,172.75 Z" fill="rgb(154,154,154)" stroke="#9A9A9A" stroke-width="2" stroke-linecap="round" stroke-linejoin="round"/></g><g transform="translate(660.000309912553, 158.36363777232978)" width="20" height="19"><text text-decoration="none" x="0" fill="rgb(75, 75, 75)" font-size="10pt" font-family="lt_regular"  y="15">1..*</text><text text-decoration="none" x="20" fill="#4b4b4b" font-size="10pt" font-family="noto_regular"  y="15"></text></g><g transform="translate(503.49992252096126, 157.4318183579069)" width="13" height="19"><text text-decoration="none" x="0" fill="#4b4b4b" font-size="10pt" font-family="lt_regular"  y="15">0*</text><text text-decoration="none" x="14" fill="#4b4b4b" font-size="10pt" font-family="noto_regular"  y="15"></text></g></g><g id="yYnYFs7Weoj"><mask id="85aa6" x="446" y="201" width="268" height="307" maskUnits="userSpaceOnUse"><rect x="446" y="201" width="268" height="307" fill="white" />undefined<rect x="480.5" y="481.5" width="19" height="25" fill="black" /><rect x="657" y="202.5" width="26" height="25" fill="black" /></mask><g mask="url(#85aa6)"><path d="M 700,215 L 580,215 L 580,355 L 580,494 L 460,494" fill="none" stroke="#9A9A9A" stroke-width="2" stroke-linecap="round" stroke-linejoin="round"/><path d="M 467,499.75 L 460,494 L 467,488.25 L 474,494 L 467,499.75 Z" fill="rgb(154,154,154)" stroke="#9A9A9A" stroke-width="2" stroke-linecap="round" stroke-linejoin="round"/></g>undefined<g transform="translate(483.5, 484.5)" width="13" height="19"><text text-decoration="none" x="0" fill="#4b4b4b" font-size="10pt" font-family="lt_regular"  y="15">0*</text><text text-decoration="none" x="14" fill="#4b4b4b" font-size="10pt" font-family="noto_regular"  y="15"></text></g><g transform="translate(660, 205.5)" width="20" height="19"><text text-decoration="none" x="0" fill="rgb(75, 75, 75)" font-size="10pt" font-family="lt_regular"  y="15">1..*</text><text text-decoration="none" x="20" fill="#4b4b4b" font-size="10pt" font-family="noto_regular"  y="15"></text></g></g><g id="p6alE8sUeed"><mask id="8185b" x="716" y="296" width="43" height="118" maskUnits="userSpaceOnUse"><rect x="716" y="296" width="43" height="118" fill="white" /><rect x="732" y="327.5" width="26" height="25" fill="black" /><rect x="720.5" y="357.5" width="19" height="25" fill="black" /></mask><g mask="url(#8185b)"><path d="M 745,310 L 745,355 L 738,355 L 730,355 L 730,400" fill="none" stroke="#9A9A9A" stroke-width="2" stroke-linecap="round" stroke-linejoin="round"/><path d="M 735.75,393 L 730,400 L 724.25,393 L 730,386 L 735.75,393 Z" fill="rgb(154,154,154)" stroke="#9A9A9A" stroke-width="2" stroke-linecap="round" stroke-linejoin="round"/></g><g transform="translate(735, 330.5)" width="20" height="19"><text text-decoration="none" x="0" fill="rgb(75, 75, 75)" font-size="10pt" font-family="lt_regular"  y="15">1..*</text><text text-decoration="none" x="20" fill="#4b4b4b" font-size="10pt" font-family="noto_regular"  y="15"></text></g><g transform="translate(723.5, 360.5)" width="13" height="19"><text text-decoration="none" x="0" fill="#4b4b4b" font-size="10pt" font-family="lt_regular"  y="15">0*</text><text text-decoration="none" x="14" fill="#4b4b4b" font-size="10pt" font-family="noto_regular"  y="15"></text></g></g><g id="Av95BCqS2Mm"><mask id="28709" x="821" y="296" width="138" height="168" maskUnits="userSpaceOnUse"><rect x="821" y="296" width="138" height="168" fill="white" /><rect x="822" y="327.5" width="26" height="25" fill="black" /><rect x="935.5" y="407.5" width="19" height="25" fill="black" /></mask><g mask="url(#28709)"><path d="M 835,310 L 835,380 L 890,380 L 945,380 L 945,450" fill="none" stroke="#9A9A9A" stroke-width="2" stroke-linecap="round" stroke-linejoin="round"/><path d="M 950.75,443 L 945,450 L 939.25,443 L 945,436 L 950.75,443 Z" fill="rgb(154,154,154)" stroke="#9A9A9A" stroke-width="2" stroke-linecap="round" stroke-linejoin="round"/></g><g transform="translate(825, 330.5)" width="20" height="19"><text text-decoration="none" x="0" fill="rgb(75, 75, 75)" font-size="10pt" font-family="lt_regular"  y="15">1..*</text><text text-decoration="none" x="20" fill="#4b4b4b" font-size="10pt" font-family="noto_regular"  y="15"></text></g><g transform="translate(938.5, 410.5)" width="13" height="19"><text text-decoration="none" x="0" fill="#4b4b4b" font-size="10pt" font-family="lt_regular"  y="15">0*</text><text text-decoration="none" x="14" fill="#4b4b4b" font-size="10pt" font-family="noto_regular"  y="15"></text></g></g><g id="CGoyV0Cz8Ud"><mask id="d9ff1" x="1021" y="293" width="88" height="171" maskUnits="userSpaceOnUse"><rect x="1021" y="293" width="88" height="171" fill="white" /><rect x="1082" y="324.5" width="26" height="25" fill="black" /><rect x="1022" y="407.5" width="26" height="25" fill="black" /></mask><g mask="url(#d9ff1)"><path d="M 1095,307 L 1095,378.5 L 1065,379 L 1035,378.5 L 1035,450" fill="none" stroke="#9A9A9A" stroke-width="2" stroke-linecap="round" stroke-linejoin="round"/></g><g transform="translate(1085, 327.5)" width="20" height="19"><text text-decoration="none" x="0" fill="#4b4b4b" font-size="10pt" font-family="lt_regular"  y="15">1..*</text><text text-decoration="none" x="20" fill="#4b4b4b" font-size="10pt" font-family="noto_regular"  y="15"></text></g><g transform="translate(1025, 410.5)" width="20" height="19"><text text-decoration="none" x="0" fill="rgb(75, 75, 75)" font-size="10pt" font-family="lt_regular"  y="15">1..*</text><text text-decoration="none" x="20" fill="#4b4b4b" font-size="10pt" font-family="noto_regular"  y="15"></text></g></g><g id="UtYfAd86gn0"><mask id="f5218" x="1171" y="293" width="103" height="121" maskUnits="userSpaceOnUse"><rect x="1171" y="293" width="103" height="121" fill="white" /><rect x="1172" y="324.5" width="26" height="25" fill="black" /><rect x="1247" y="357.5" width="26" height="25" fill="black" /></mask><g mask="url(#f5218)"><path d="M 1185,307 L 1185,353.5 L 1223,354 L 1260,353.5 L 1260,400" fill="none" stroke="#9A9A9A" stroke-width="2" stroke-linecap="round" stroke-linejoin="round"/></g><g transform="translate(1175, 327.5)" width="20" height="19"><text text-decoration="none" x="0.5" fill="#4b4b4b" font-size="10pt" font-family="noto_regular"  y="15">1..*</text><text text-decoration="none" x="19.5" fill="#4b4b4b" font-size="10pt" font-family="noto_regular"  y="15"></text></g><g transform="translate(1250, 360.5)" width="20" height="19"><text text-decoration="none" x="0" fill="#4b4b4b" font-size="10pt" font-family="lt_regular"  y="15">1..*</text><text text-decoration="none" x="20" fill="#4b4b4b" font-size="10pt" font-family="noto_regular"  y="15"></text></g></g><g id="3osnRLSxeIO"><mask id="4bd24" x="1066" y="438" width="118" height="118" maskUnits="userSpaceOnUse"><rect x="1066" y="438" width="118" height="118" fill="white" /><rect x="1103" y="529.5" width="14" height="25" fill="black" /><rect x="1127" y="439.5" width="26" height="25" fill="black" /></mask><g mask="url(#4bd24)"><path d="M 1080,542 L 1125,542 L 1125,497 L 1125,452 L 1170,452" fill="none" stroke="#9A9A9A" stroke-width="2" stroke-linecap="round" stroke-linejoin="round"/><path d="M 1163,446.25 L 1170,452 L 1163,457.75 L 1156,452 L 1163,446.25 Z" fill="rgb(154,154,154)" stroke="#9A9A9A" stroke-width="2" stroke-linecap="round" stroke-linejoin="round"/></g><g transform="translate(1106, 532.5)" width="8" height="19"><text text-decoration="none" x="0.5" fill="#4b4b4b" font-size="10pt" font-family="noto_regular"  y="15">1</text><text text-decoration="none" x="7.5" fill="#4b4b4b" font-size="10pt" font-family="noto_regular"  y="15"></text></g><g transform="translate(1130, 442.5)" width="20" height="19"><text text-decoration="none" x="0" fill="#4b4b4b" font-size="10pt" font-family="lt_regular"  y="15">1..*</text><text text-decoration="none" x="20" fill="#4b4b4b" font-size="10pt" font-family="noto_regular"  y="15"></text></g></g><g id="W1Tw1SNor21"><mask id="2e9c4" x="356" y="584" width="128" height="175" maskUnits="userSpaceOnUse"><rect x="356" y="584" width="128" height="175" fill="white" /><rect x="357" y="615.5" width="26" height="25" fill="black" /><rect x="426" y="732.5" width="28" height="25" fill="black" /></mask><g mask="url(#2e9c4)"><path d="M 370,598 L 370,745 L 470,745" fill="none" stroke="#9A9A9A" stroke-width="2" stroke-linecap="round" stroke-linejoin="round"/></g><g transform="translate(360, 618.5)" width="20" height="19"><text text-decoration="none" x="0.5" fill="#4b4b4b" font-size="10pt" font-family="noto_regular"  y="15">1..*</text><text text-decoration="none" x="19.5" fill="#4b4b4b" font-size="10pt" font-family="noto_regular"  y="15"></text></g><g transform="translate(429, 735.5)" width="22" height="19"><text text-decoration="none" x="0" fill="#4b4b4b" font-size="10pt" font-family="lt_regular"  y="15">2..5</text><text text-decoration="none" x="22" fill="#4b4b4b" font-size="10pt" font-family="noto_regular"  y="15"></text></g></g><g id="fBC85Flrlmi"><mask id="60577" x="636" y="784" width="323" height="68" maskUnits="userSpaceOnUse"><rect x="636" y="784" width="323" height="68" fill="white" /><rect x="922" y="825.5" width="26" height="25" fill="black" /><rect x="666" y="785.5" width="28" height="25" fill="black" /></mask><g mask="url(#60577)"><path d="M 945,818 L 945,838 L 913,838 L 879.9999999999999,838 L 880,818 L 879.9999999999999,798 L 650,798" fill="none" stroke="#9A9A9A" stroke-width="2" stroke-linecap="round" stroke-linejoin="round"/></g><g transform="translate(925, 828.5)" width="20" height="19"><text text-decoration="none" x="0.5" fill="#4b4b4b" font-size="10pt" font-family="noto_regular"  y="15">1..*</text><text text-decoration="none" x="19.5" fill="#4b4b4b" font-size="10pt" font-family="noto_regular"  y="15"></text></g><g transform="translate(669, 788.5)" width="22" height="19"><text text-decoration="none" x="0" fill="#4b4b4b" font-size="10pt" font-family="lt_regular"  y="15">2..5</text><text text-decoration="none" x="22" fill="#4b4b4b" font-size="10pt" font-family="noto_regular"  y="15"></text></g></g></svg>